<svg xmlns="http://www.w3.org/2000/svg" viewBox="0 0 80 80"><path d="M23 44.9c.8.3 1.6 0 1.8-.9.2-.6.6-2.2.7-2.9.2-.9.1-1.2-.5-2-1.5-1.7-2.4-4-2.4-7.1 0-9.2 6.9-17.4 17.9-17.4 9.8 0 15.1 6 15.1 13.9 0 10.5-4.6 19.3-11.5 19.3-3.8 0-6.6-3.1-5.7-7 1.1-4.6 3.2-9.6 3.2-12.9 0-3-1.6-5.5-4.9-5.5-3.9 0-7 4-7 9.4 0 3.4 1.2 5.7 1.2 5.7s-4 16.8-4.7 19.8c-1.4 5.9-.2 13.1-.1 13.8.1.4.6.5.9.2.4-.5 5-6.2 6.6-11.9.4-1.6 2.6-10 2.6-10 1.3 2.4 4.9 4.5 8.9 4.5 11.7 0 19.6-10.6 19.6-24.9 0-10.8-9.1-20.8-23-20.8-17.3 0-26 12.4-26 22.7-.2 6.4 2.2 12 7.3 14z"/></svg>