<svg xmlns="http://www.w3.org/2000/svg" viewBox="0 0 80 80"><path d="M19.4 6.7h4L26.2 17l2.5-10.3h4L28.1 22v10.4h-4V22L19.4 6.7zm18.3 6.6c-3.1 0-5.2 2.1-5.2 5.1v9.3c0 3.3 1.7 5.1 5.2 5.1 2.8 0 5.1-1.9 5.1-5.1v-9.3c0-3-2.2-5.1-5.1-5.1zm1.5 14.2c0 1-.5 1.8-1.5 1.8s-1.5-.8-1.5-1.8v-8.8c0-1 .5-1.8 1.5-1.8 1.1 0 1.5.7 1.5 1.8v8.8zm13.2-14.1v14.4c-.4.5-1.4 1.4-2.1 1.4-.8 0-.9-.5-.9-1.3V13.4h-3.5v15.9c0 1.9.6 3.4 2.5 3.4 1.1 0 2.5-.6 4.1-2.4v2.1H56v-19h-3.6zm6.1 38.5c-1.2 0-1.5.9-1.5 2.1v1.8h3V54c-.1-1.2-.3-2.1-1.5-2.1zm-13.1.1c-.2.1-.5.3-.7.5v11.3c.3.3.5.5.8.6.5.3 1.3.3 1.7-.2.2-.3.3-.7.3-1.2v-9.3c0-.6-.1-1.1-.4-1.4-.3-.5-1.1-.6-1.7-.3zm13.4-14.4c-7.2-.5-30.7-.5-37.9 0-7.8.5-8.7 5.3-8.8 17.7.1 12.4 1 17.1 8.8 17.7 7.2.5 30.7.5 37.9 0 7.8-.5 8.7-5.3 8.8-17.7-.1-12.4-1-17.2-8.8-17.7zM24.6 67.3h-3.8v-21h-3.9v-3.6h11.6v3.6h-3.9v21zm13.5 0h-3.4v-2c-.6.7-1.3 1.3-1.9 1.7-1.8 1-4.3 1-4.3-2.7V49.2h3.4V63c0 .7.2 1.2.9 1.2s1.6-.8 2-1.4V49.2H38l.1 18.1zM51 63.5c0 2.2-.8 4-3.1 4-1.2 0-2.3-.4-3.2-1.6v1.4h-3.4V42.8h3.4v7.9c.8-.9 1.8-1.7 3-1.7 2.5 0 3.3 2.1 3.3 4.5v10zm12.4-4.8H57v3.4c0 1.4.1 2.5 1.5 2.5s1.5-1 1.5-2.5v-1.3h3.5v1.4c0 3.5-1.5 5.6-5 5.6-3.2 0-4.8-2.3-4.8-5.6v-8.1c0-3.1 2.1-5.3 5.1-5.3 3.2 0 4.8 2 4.8 5.3l-.2 4.6z"/></svg>