<svg xmlns="http://www.w3.org/2000/svg" viewBox="0 0 80 80"><path d="M22.9 19.3c-1.7 3.7-1 10.4-.7 15.1-1.8 1-4.1-.8-5.4-.8-1.4 0-3 .9-3.2 2.2-.2 1 .2 2.4 3.3 3.6 1.2.5 4 1 4.7 2.6.9 2.2-4.7 12.2-13.7 13.7-.7.1-1.2.7-1.2 1.4.2 2.7 6.2 3.8 8.9 4.2.3.4.5 1.9.8 3.1.2.5.6 1.2 1.6 1.2 1.4 0 3.6-1.1 7.6-.4 3.9.6 7.5 6.2 14.5 6.2 6.5 0 10.4-5.5 14.1-6.2 2.2-.4 4-.2 6.1.2 1.4.3 2.7.4 3.1-1 .4-1.2.6-2.8.8-3.1 2.7-.4 8.8-1.5 8.9-4.2 0-.7-.5-1.3-1.2-1.4-8.5-1.5-14.3-11.5-13.4-13.7.7-1.5 3.5-2.1 4.7-2.6 2.3-.9 3.4-2 3.4-3.3 0-1.6-2-2.6-3.4-2.6-1.5 0-3.6 1.7-5.3.8.3-4.7.9-11.4-.7-15.1C54 12.2 47 8.6 40 8.6s-14 3.5-17.1 10.7z"/></svg>