<svg xmlns="http://www.w3.org/2000/svg" viewBox="0 0 80 80"><path d="M40 15.6c8 0 8.9 0 12 .2 2.9.1 4.5.6 5.5 1 1.5.5 2.4 1.2 3.5 2.2 1 1 1.7 2 2.2 3.4.4 1 .9 2.6 1 5.5.1 3.1.2 4.1.2 12s0 8.9-.2 12c-.1 2.9-.6 4.5-1 5.5C62.7 59 62 59.9 61 61c-1 1-2 1.7-3.4 2.2-1 .4-2.6.9-5.5 1-3.1.1-4.1.2-12 .2s-8.9 0-12-.2c-2.9-.1-4.5-.6-5.5-1C21 62.7 20.1 62 19 61c-1-1-1.7-2-2.2-3.4-.4-1-.9-2.6-1-5.5-.1-3.1-.2-4.1-.2-12s0-8.9.2-12c.1-2.9.6-4.5 1-5.5.5-1.6 1.2-2.5 2.2-3.6 1-1 2-1.7 3.4-2.2 1-.4 2.6-.9 5.5-1 3.2-.2 4.1-.2 12.1-.2m0-5.4c-8.1 0-9.1 0-12.3.2-3.2.1-5.3.6-7.2 1.4-2 .8-3.6 1.8-5.3 3.4-1.7 1.7-2.7 3.3-3.4 5.3-.7 1.9-1.2 4.1-1.4 7.2-.1 3.2-.2 4.2-.2 12.3 0 8.1 0 9.1.2 12.3.1 3.2.6 5.3 1.4 7.2.8 2 1.8 3.6 3.4 5.3 1.7 1.7 3.3 2.7 5.3 3.4 1.9.7 4.1 1.2 7.2 1.4 3.2.1 4.2.2 12.3.2s9.1 0 12.3-.2c3.2-.1 5.3-.6 7.2-1.4 2-.8 3.6-1.8 5.3-3.4 1.7-1.7 2.7-3.3 3.4-5.3.7-1.9 1.2-4.1 1.4-7.2.1-3.2.2-4.2.2-12.3s0-9.1-.2-12.3c-.1-3.2-.6-5.3-1.4-7.2-.8-2-1.8-3.6-3.4-5.3-1.7-1.7-3.3-2.7-5.3-3.4-1.9-.7-4.1-1.2-7.2-1.4-3.2-.1-4.2-.2-12.3-.2z"/><path d="M40 24.7c-8.4 0-15.3 6.8-15.3 15.3S31.6 55.3 40 55.3 55.3 48.4 55.3 40 48.4 24.7 40 24.7zm0 25.2c-5.5 0-9.9-4.4-9.9-9.9s4.4-9.9 9.9-9.9 9.9 4.4 9.9 9.9-4.4 9.9-9.9 9.9z"/><circle cx="55.9" cy="24.1" r="3.6"/></svg>