<svg xmlns="http://www.w3.org/2000/svg" width="400" height="400"><path d="M318.164 61.288H81.746c-11.288 0-20.462 8.956-20.462 19.988v237.418c0 11.048 9.174 20.018 20.462 20.018h236.417c11.311 0 20.553-8.971 20.553-20.018V81.276c0-11.033-9.241-19.988-20.552-19.988zm-174.58 236.395h-41.188V165.296h41.188v132.387zm-20.582-150.491c-13.223 0-23.871-10.69-23.871-23.863 0-13.155 10.649-23.849 23.871-23.849 13.162 0 23.849 10.694 23.849 23.849-.001 13.174-10.687 23.863-23.849 23.863zm174.669 150.491h-41.113v-64.375c0-15.352-.293-35.107-21.38-35.107-21.418 0-24.684 16.722-24.684 33.993v65.488h-41.097V165.296h39.442v18.087h.564c5.486-10.411 18.92-21.384 38.937-21.384 41.632 0 49.331 27.413 49.331 63.069v72.615z"/></svg>