<svg xmlns="http://www.w3.org/2000/svg" viewBox="0 0 80 80"><path d="M8.4 53.8c-1.7-1.6-2.9-3.9-2.9-6.5s1.1-4.9 2.9-6.5v13zM14.1 55.8c-1 0-1.6 0-2.9-.4V39.1c1.4-.4 2-.4 2.9-.3v17zM19.9 55.8H17V39.5l.9.5c.4-1.6 1.1-3.1 2-4.4v20.2zM25.6 55.8h-2.9V32.6c.9-.7 1.8-1.2 2.9-1.6v24.8zM31.4 55.8h-2.9V30.3c1.1-.1 1.4-.2 2.9 0v25.5zM37.1 55.8h-2.9V31.2l1.1.5c.5-.9 1.1-1.7 1.8-2.5v26.6zM66.1 55.8H40V26.7c2.3-1.6 5-2.5 7.9-2.5 7.8 0 14.1 6.4 14.7 14.6 5.6-2.8 11.9 1.7 11.9 8.1 0 4.9-3.7 8.9-8.4 8.9z"/></svg>