<svg xmlns="http://www.w3.org/2000/svg" viewBox="0 0 80 80"><path fill="currentColor" d="M54.2 43.9c-3.3 0-6.2 1.6-8 4l-10.7-5.2c.2-.9.4-1.7.4-2.7 0-.9-.1-1.8-.4-2.7l10.7-5.2c1.8 2.4 4.7 4 8 4 5.5 0 10-4.5 10-10s-4.5-10-10-10-10 4.5-10 10c0 .9.1 1.8.4 2.7L33.8 34c-1.8-2.4-4.7-4-8-4-5.5 0-10 4.5-10 10s4.5 10 10 10c3.3 0 6.2-1.6 8-4l10.7 5.2c-.2.9-.4 1.7-.4 2.7 0 5.5 4.5 10 10 10s10-4.5 10-10-4.4-10-9.9-10zm0-24.1c3.5 0 6.3 2.8 6.3 6.3s-2.8 6.3-6.3 6.3-6.3-2.8-6.3-6.3 2.8-6.3 6.3-6.3zm0 40.4c-3.5 0-6.3-2.8-6.3-6.3s2.8-6.3 6.3-6.3 6.3 2.8 6.3 6.3-2.8 6.3-6.3 6.3z"/></svg>