<svg version="1.1" id="Layer_1" xmlns="http://www.w3.org/2000/svg" x="0" y="0" viewBox="0 0 288 288" xml:space="preserve"><style></style><path d="M43.86 244.9c-1.14-1.65-1.78-3.58-1.9-5.8a57 57 0 0 0-.76-6.56c.25-1.01.44-2.28.57-3.8.12-1.52.19-2.66.19-3.42 0-.63-.03-1.23-.09-1.8-.07-.57-.1-1.17-.1-1.81 0-3.3.85-6.24 2.57-8.83 1.71-2.6 3.52-5.1 5.42-7.51.38-.63 1.43-2.16 3.14-4.56 1.71-2.41 4.78-4.88 9.22-7.41 2.15-1.4 4.34-3.04 6.56-4.94 2.21-1.9 4.59-3.17 7.13-3.8 2.91-1.14 5.16-2.06 6.75-2.76 1.58-.7 2.78-1.36 3.61-2 .82-.63 1.43-1.23 1.81-1.8.38-.57.95-1.36 1.71-2.38 1.14-2.66 2.18-4.87 3.14-6.65.95-1.77 2.09-3.67 3.42-5.7 1.33-2.03 2.76-3.8 4.28-5.32 1.01-1.01 1.96-2.37 2.85-4.08.88-1.71 1.83-3.26 2.85-4.66.25-.63.31-1.33.19-2.09-.13-.76.12-1.52.76-2.28 1.77-1.27 3.2-2.76 4.27-4.47 1.08-1.71 2.5-3.52 4.28-5.42 1.27-1.39 2.79-3.64 4.56-6.75 1.77-3.1 3.86-6.05 6.27-8.84 1.01-2.15 2.03-4.09 3.04-5.8 1.01-1.71 2.31-3.61 3.9-5.7 1.58-2.09 3.45-4.21 5.6-6.37-.26.26.03-.13.86-1.14.82-1.01 1.9-2.34 3.23-3.99 1.33-1.64 2.69-3.48 4.09-5.51 1.39-2.03 2.53-3.93 3.42-5.7.12-.25.47-.67 1.04-1.23.57-.57 1.17-1.23 1.81-2 .63-.76 1.23-1.52 1.8-2.28.57-.76.86-1.45.86-2.09-1.4.63-2.79 1.27-4.18 1.9-1.27.63-2.57 1.27-3.9 1.9-1.33.63-2.5 1.27-3.52 1.9-4.44 1.78-8.36 3.93-11.78 6.46-3.42 2.54-7.22 5.07-11.4 7.6l-.76-.38c.25-.25.41-.44.47-.57.06-.12.22-.31.47-.57-.13 0-.19-.1-.19-.28 0-.19-.13-.29-.38-.29-.51.38-.89.89-1.14 1.52.25.13.5.19.76.19 0 .25-.32.7-.95 1.33-.63.63-1.43 1.33-2.37 2.09-.95.76-1.93 1.52-2.95 2.28-1.02.76-1.84 1.4-2.47 1.9-.51.38-1.36.98-2.57 1.81-1.21.83-2.47 1.8-3.8 2.94-1.33 1.14-2.5 2.38-3.52 3.71s-1.52 2.63-1.52 3.9c0 .89.06 1.74.19 2.57.12.83.19 1.62.19 2.37 0 1.4-.03 2.95-.09 4.66-.07 1.71-.41 3.14-1.05 4.28-2.54 1.27-4.75 2.28-6.65 3.04-1.9.76-3.8 1.55-5.7 2.37-1.9.83-4.02 1.74-6.37 2.76-2.35 1.02-5.16 2.41-8.46 4.18-1.78.51-3.42 1.23-4.94 2.18-1.52.95-3.04 1.97-4.56 3.04a60.895 60.895 0 0 1-4.75 3.04 32.2 32.2 0 0 1-5.13 2.38c-1.27-1.39-2.44-3.67-3.52-6.84s-1.62-6.08-1.62-8.74c0-1.01.06-1.83.19-2.47 0-.89.5-2.76 1.52-5.61 1.01-2.85 3.42-6.18 7.22-9.98.63-1.27 1.65-2.66 3.04-4.18 1.39-1.52 2.91-3.04 4.56-4.56 1.64-1.52 3.35-3.07 5.13-4.66 1.77-1.58 3.36-3.07 4.75-4.47 3.29-3.29 6.46-6.14 9.5-8.55 3.04-2.4 6.21-4.62 9.5-6.65 0 .13.25.19.76.19.12 0 .41-.31.86-.95.44-.63 1.07-1.36 1.9-2.18.82-.82 1.77-1.65 2.85-2.47 1.07-.82 2.31-1.49 3.7-2 .76-.25 1.65-.69 2.66-1.33 1.01-.63 2.09-1.33 3.23-2.09 1.14-.76 2.31-1.52 3.52-2.28 1.2-.76 2.31-1.33 3.33-1.71.76-.76 2.38-1.87 4.85-3.33 2.47-1.45 5.1-2.95 7.89-4.47 2.79-1.52 5.42-2.85 7.89-3.99 2.47-1.14 4.09-1.71 4.85-1.71 2.91-1.14 6.46-2.6 10.64-4.37 4.18-1.77 8.74-3.55 13.68-5.32.12 0 .82-.16 2.09-.47 1.27-.32 2.72-.7 4.37-1.14 1.65-.44 3.2-.92 4.66-1.43 1.46-.5 2.44-1.01 2.95-1.52 1.39 0 3.01-.19 4.85-.57 1.83-.38 3.7-.82 5.6-1.33 1.9-.5 3.73-1.04 5.51-1.62 1.77-.57 3.42-1.11 4.94-1.62h.57c3.17 0 6.75-.44 10.74-1.33 3.99-.88 7.82-1.33 11.5-1.33 2.78 0 5.03.48 6.75 1.43 1.71.95 3.45 1.55 5.23 1.8 3.04 2.54 5.63 5.99 7.79 10.36 2.15 4.37 3.23 8.77 3.23 13.21 0 1.27-.07 2.38-.19 3.33-.13.95-.32 1.9-.57 2.85-.25.95-.67 2.03-1.23 3.23-.57 1.21-1.3 2.69-2.18 4.47-1.27 2.16-2.54 3.96-3.8 5.42a43.396 43.396 0 0 1-4.18 4.18c-1.52 1.33-3.1 2.69-4.75 4.09s-3.49 3.11-5.51 5.13c-2.16 1.01-4.31 2.31-6.46 3.9a46.497 46.497 0 0 1-6.65 4.09c-2.41 1.14-5.16 2.79-8.27 4.94-3.11 2.16-5.92 3.68-8.46 4.56-5.32 2.79-9 4.78-11.02 5.99-2.03 1.2-3.33 1.97-3.9 2.28-.57.32-.73.45-.48.38.25-.06.03.07-.67.38-.7.32-2.25 1.08-4.66 2.28-2.41 1.2-6.46 3.2-12.16 5.99.76.89 2.22 1.61 4.37 2.19 2.15.57 3.86 1.17 5.13 1.8 1.52.89 2.85 2.31 3.99 4.27 1.14 1.97 2.09 4.12 2.85 6.46.76 2.35 1.33 4.66 1.71 6.93.38 2.28.57 4.25.57 5.89 0 3.3-.1 5.99-.29 8.08-.19 2.09-.47 3.96-.86 5.6-.38 1.65-.89 3.23-1.52 4.75-.64 1.52-1.33 3.3-2.09 5.32-.13.63-.6 1.71-1.43 3.23s-1.8 3.2-2.95 5.04a67.002 67.002 0 0 1-3.61 5.23c-1.27 1.64-2.41 2.85-3.42 3.61.12-.13-.19.19-.95.95s-1.59 1.62-2.47 2.57c-.89.95-1.71 1.9-2.47 2.85-.76.95-1.14 1.55-1.14 1.8-.63.5-1.61 1.46-2.94 2.85-1.33 1.39-2.98 2.95-4.94 4.66a56.857 56.857 0 0 1-6.65 4.94c-2.47 1.58-5.04 2.82-7.7 3.7-2.16 1.52-4.18 2.69-6.08 3.52-1.9.82-3.42 1.68-4.56 2.57-.63-.26-.95-.57-.95-.95 2.53-1.52 5.03-3.07 7.51-4.66 2.47-1.59 4.97-3.07 7.5-4.47.89-.51 1.87-1.11 2.95-1.8 1.07-.7 2.12-1.4 3.13-2.09 1.01-.7 1.9-1.36 2.66-2 .76-.63 1.27-1.27 1.52-1.9-.26.12-.45.19-.57.19-.13 0-.32.06-.57.19-5.32 4.18-10.87 7.76-16.63 10.74-5.77 2.98-11.69 5.99-17.77 9.03-.13.12-.57.38-1.33.76-.76.38-1.59.79-2.47 1.23-.89.44-1.71.88-2.47 1.33-.76.44-1.14.73-1.14.86l.19.19 2.85-1.14c.25-.13 1.24-.73 2.95-1.8 1.71-1.08 3.39-1.62 5.04-1.62h.38c.13.13.19.31.19.57 0 .5-.45.98-1.33 1.43-.89.44-1.65.79-2.28 1.05-1.02.38-1.49.63-1.43.76.06.13-.07.29-.38.48-.32.19-1.17.54-2.57 1.04s-3.99 1.39-7.79 2.66c-1.9.63-4.18 1.64-6.84 3.04-2.66 1.39-5.32 2.09-7.98 2.09h-.57c0-.64.09-1.05.28-1.24.19-.19.28-.41.28-.67V243c-.26 0-.38.06-.38.19s-.07.32-.19.57c-.26 0-.51-.07-.76-.19 0 .63-.16 1.11-.48 1.43-.32.31-.67.57-1.05.76-.38.19-.76.35-1.14.47-.38.12-.7.38-.95.76-.64.12-1.59.41-2.85.85-1.27.44-2.79.89-4.56 1.33-1.78.44-3.8.86-6.08 1.24-2.28.38-4.63.57-7.03.57-.26 0-.51-.03-.76-.1s-.51-.1-.76-.1c-.76.25-1.4.38-1.9.38-2.03 0-4.31-.32-6.84-.95-2.54-.62-4.88-2.39-7.03-5.31zm7.03-18.05c-.26.5-.38.82-.38.95.25.76.69 1.24 1.33 1.43.63.19 1.14.54 1.52 1.05.5-.13 1.14-.19 1.9-.19.38.25.69.44.95.57.25.13.5.25.76.38.25-.13.48-.22.67-.29.19-.07.41-.16.67-.29.5 0 1.01.13 1.52.38.38-.13.73-.26 1.05-.38.31-.13.6-.19.85-.19s.44.06.57.19c.12.13.31.19.57.19.25 0 .5-.03.76-.1.25-.07.5-.1.76-.1.12 0 .29.06.48.19s.35.13.48 0c-.26 0-.07-.1.57-.28.63-.19 1.39-.45 2.28-.76.88-.32 1.71-.64 2.47-.95.76-.32 1.2-.54 1.33-.67 0-.26-.03-.54-.1-.86-.07-.32-.1-.6-.1-.85 0-.26.03-.54.1-.86.06-.32.1-.67.1-1.05-.51.25-.89.38-1.14.38-.89-1.4-1.46-2.69-1.71-3.9-.26-1.21-.38-3.01-.38-5.42 0-.89.16-1.74.48-2.57.31-.83.47-1.62.47-2.38 0-.13-.03-.26-.09-.38a.8.8 0 0 1-.1-.38c-.26 0-.83.35-1.71 1.05-.89.69-1.65 1.23-2.28 1.61-3.04 2.15-5.8 4.4-8.27 6.75-2.49 2.38-4.61 4.94-6.38 7.73zm16.53-103.56c.38-.38.57-.69.57-.95 0-.25-.13-.38-.38-.38-.38 0-1.17.6-2.38 1.81-1.21 1.2-2.41 2.6-3.61 4.18a61.641 61.641 0 0 0-3.23 4.66c-.95 1.52-1.43 2.53-1.43 3.04 2.03-2.03 3.83-4.09 5.42-6.18 1.59-2.1 3.26-4.15 5.04-6.18zm-2.47 11.78c.25-.13.47-.22.67-.29.19-.06.41-.22.67-.47-.13-.13-.19-.25-.19-.38-.51 0-.83.19-.95.57l-.38.76.18-.19zm8.74-5.13c.12-.12.19-.28.19-.47s.06-.35.19-.47c-.38.26-.85.6-1.42 1.04-.57.45-.86.79-.86 1.05 0 .13.03.22.1.28.06.07.1.22.1.48.37-.52.94-1.15 1.7-1.91zM80.72 224c-.51.63-.76 1.39-.76 2.28.25 0 .38.03.38.09s.06.1.19.1c1.01-.26 2.19-.47 3.52-.67 1.33-.19 2.5-.54 3.52-1.04.5-.63.88-.98 1.14-1.05.25-.07.57-.09.95-.09s.95-.03 1.71-.1 2-.38 3.71-.95 4.05-1.49 7.03-2.76c2.97-1.27 6.81-3.04 11.5-5.32.76-.51 1.81-1.11 3.14-1.8 1.33-.7 2.66-1.4 3.99-2.09 1.33-.7 2.53-1.3 3.61-1.8 1.07-.51 1.74-.76 2-.76.63-.26 1.58-.7 2.85-1.33 1.27-.63 2.6-1.4 3.99-2.28 1.39-.89 2.76-1.8 4.09-2.76 1.33-.95 2.44-1.87 3.33-2.76 1.77-1.52 3.2-2.69 4.28-3.51 1.07-.83 2.09-1.62 3.04-2.38.95-.76 1.55-1.2 1.8-1.33 1.77-.89 3.29-2.12 4.56-3.7 1.27-1.59 2.6-3.07 3.99-4.47.63-.63 1.58-2 2.85-4.08 1.27-2.09 2.6-3.58 3.99-4.47 1.39-1.39 2.6-3.2 3.61-5.42 1.01-2.21 2.03-4.21 3.04-5.99 0-2.53-.54-4.72-1.61-6.56-1.08-1.83-2.44-3.39-4.09-4.66a16.18 16.18 0 0 0-5.42-2.76c-1.97-.57-3.83-.86-5.61-.86-.76 0-1.27.07-1.52.19-.64-.12-1.17-.22-1.62-.28-.45-.06-.92-.1-1.43-.1-1.02 0-2.16-.03-3.42-.1-1.27-.06-2.16.03-2.66.28-.51.13-1.46.19-2.85.19-1.4 0-3.04.1-4.94.29-1.9.19-3.87.51-5.89.95-2.03.45-3.99 1.17-5.89 2.19-.63.63-1.23 1.46-1.8 2.47-.57 1.02-1.17 1.97-1.8 2.85.12-.38-.19-.03-.95 1.04-.76 1.08-1.65 2.38-2.66 3.9-1.02 1.52-1.97 3.01-2.85 4.47-.89 1.46-1.33 2.37-1.33 2.76 0 .38.13.57.38.57.12 0 .44-.13.95-.38 2.91-.76 5.83-1.46 8.74-2.09 2.91-.63 5.95-1.27 9.12-1.9.88.38 1.61 1.08 2.19 2.09.57 1.02.85 2.03.85 3.04 0 .63-.07 1.14-.19 1.52 0 .51.19.95.57 1.33-.26 1.77-.57 3.23-.95 4.37-.38 1.14-.83 2.22-1.33 3.23-1.4 1.9-2.73 3.55-3.99 4.94a28.007 28.007 0 0 1-3.13 3.33c-1.08.95-1.81 1.43-2.19 1.43-.26 0-.45-.07-.57-.19 0-.26.12-.47.38-.67.25-.19.38-.47.38-.86v-.19c-1.78 1.14-4.09 1.87-6.94 2.18-2.85.32-5.48.6-7.89.86-.76.38-1.68.67-2.76.86-1.08.19-2.25.41-3.52.67-1.27.25-2.44.54-3.52.86-1.08.31-2 .67-2.76 1.04a86.176 86.176 0 0 0-3.04 3.9c-.89 1.2-1.65 2.5-2.28 3.9.12-.38-.07.03-.57 1.24-.51 1.2-1.27 2.82-2.28 4.84-1.02 2.03-2.22 4.34-3.61 6.94a51.58 51.58 0 0 1-4.75 7.32zm3.23-22.23l.19.19.19-.19-.19-.19-.19.19zm5.13 3.23c-.38 0-.57.13-.57.38l.19.19c.25 0 .38-.07.38-.19V205zm.76 37.43c.25-.13.48-.22.67-.29.19-.07.41-.22.67-.47-1.52 0-2.35.5-2.47 1.52.24-.25.63-.5 1.13-.76zm.76-40.66c0 .25.03.35.1.29.06-.07.22.03.47.28.25-.51.57-1.08.95-1.71.38-.63.57-1.14.57-1.52 0-.38.12-.63.38-.76.25-.13.38-.32.38-.57v-.38c-.26.12-.67.69-1.24 1.71-.56 1.01-1.1 1.9-1.61 2.66zm1.52 39.52c1.52-.26 2.95-.63 4.28-1.14 1.33-.51 2.69-1.14 4.09-1.9-.26 0-.48-.03-.67-.1-.19-.07-.41-.1-.67-.1.25 0 .03.1-.67.29-.7.19-1.52.44-2.47.76-.95.32-1.84.67-2.66 1.05-.82.38-1.23.76-1.23 1.14zm9.88-69.17c-.38.13-.7.45-.95.95 0 .38.06.63.19.76.51-.5.76-1.07.76-1.71zm1.9-2.85c-.51.38-.76.63-.76.76l.19.38c-.13 0 .03-.22.48-.67.44-.44.92-.98 1.42-1.62.5-.63.98-1.33 1.43-2.09.44-.76.67-1.46.67-2.09-.38.26-.98.98-1.8 2.18-.84 1.22-1.37 2.27-1.63 3.15zm5.32-8.74c0 .13.03.19.1.19.06 0 .09.07.09.19.63-.5 1.05-.88 1.24-1.14.19-.25.41-.82.67-1.71-.64.13-1.05.45-1.24.95-.19.51-.41.95-.67 1.33l-.19.19zm3.81 4.94c-.26.26-.38.48-.38.67 0 .19-.07.41-.19.67.88-.25 1.64-.92 2.28-2 .63-1.07.95-1.74.95-2v-.38c-.38 0-.86.45-1.43 1.33-.57.89-.98 1.46-1.23 1.71zm1.52 59.67c.5 0 1.01-.26 1.52-.76h-.76c.12 0-.07.13-.57.38-.51.25-.83.44-.95.57 0 .13.06.19.19.19.12 0 .31-.13.57-.38zm.19-124.28c.25-.25.44-.41.57-.47.12-.06.25-.22.38-.48-.64.13-.95.45-.95.95zm1.71 116.11c-.13 0-.19.12-.19.38l.19-.19v-.19zm2.09 5.89c.12.12.38.19.76.19s.88-.32 1.52-.95c0-.13-.07-.26-.19-.38-1.02.25-1.71.63-2.09 1.14zm.38-65.75c0 .26-.07.44-.19.57l.38-.38-.19-.19zm28.31 48.27c.63 0 1.07-.32 1.33-.95-.51 0-.86.13-1.04.38-.19.25-.48.57-.86.95-.26 0-.98.38-2.19 1.14-1.2.76-2.53 1.64-3.99 2.66-1.46 1.01-2.98 2.06-4.56 3.13-1.59 1.07-2.88 2-3.9 2.76-1.27.5-2.98 1.33-5.13 2.47-2.16 1.14-3.74 2.22-4.75 3.23 1.52-.13 3.39-.76 5.61-1.9 2.21-1.14 4.53-2.47 6.94-3.99 2.4-1.52 4.72-3.17 6.93-4.94 2.22-1.78 4.09-3.42 5.61-4.94zm-23.18-76.39c-.51.38-.79.6-.86.67-.07.07-.1.22-.1.47.51 0 .83-.38.96-1.14zm1.14-2.28c-.38.26-.57.64-.57 1.14.38-.25.57-.5.57-.76v-.38zm5.32 2.09c-.26.26-.45.51-.57.76-.13.26-.19.57-.19.95v.19c.13 0 .5-.31 1.14-.95.63-.63 1.3-1.39 2-2.28.7-.88 1.33-1.83 1.9-2.85.57-1.01.85-1.83.85-2.47-.13 0-.76.7-1.9 2.09a40.636 40.636 0 0 0-3.23 4.56zm-.57-39.34c.12.13.31.19.57.19v-.76c-.26.38-.45.57-.57.57zm7.03 30.79c-.63.26-.95.76-.95 1.52.12 0 .76-.63 1.9-1.9s1.83-2.41 2.09-3.42c2.53-2.53 5.13-5.7 7.79-9.5s4.94-7.35 6.84-10.64c.5-.76 1.39-1.93 2.66-3.52 1.27-1.58 1.9-2.82 1.9-3.71-.38.13-.79.51-1.23 1.14-.45.63-.79 1.14-1.04 1.52-2.92 3.67-5.73 7.54-8.46 11.59-2.73 4.06-5.54 8.17-8.46 12.35 0 .38-.45 1.01-1.33 1.9-.89.89-1.46 1.78-1.71 2.67zm8.93-.76c.25-.63.79-1.45 1.62-2.47.82-1.01 1.55-2.03 2.18-3.04.38-.63.95-1.43 1.71-2.37.76-.95 1.55-1.96 2.37-3.04.82-1.07 1.62-2.18 2.38-3.33.76-1.14 1.27-2.21 1.52-3.23-1.4.76-2.69 2.35-3.9 4.75-1.2 2.41-2.69 4.5-4.47 6.27-1.4 1.65-2.47 3.01-3.23 4.09-.76 1.08-1.46 2.12-2.09 3.13-.64 1.02-.95 1.78-.95 2.28l.19.38c.12 0 .5-.41 1.14-1.23.64-.83 1.15-1.56 1.53-2.19zm20.71-28.32c-1.02 1.78-2.12 3.8-3.33 6.08-1.2 2.28-2.63 4.5-4.28 6.65-2.16 2.79-4.25 5.61-6.27 8.46-2.03 2.85-3.99 5.54-5.89 8.08.12 0 .19.03.19.1s.06.09.19.09c3.29-1.01 6.43-2.66 9.41-4.94 2.97-2.28 6.3-4.37 9.98-6.27.25-.12.92-.54 2-1.23 1.07-.7 2.25-1.43 3.52-2.19s2.47-1.45 3.61-2.09c1.14-.63 1.9-.95 2.28-.95 1.01-.25 2.4-1.2 4.18-2.85 1.77-1.64 4.11-3.04 7.03-4.18.38-.25 1.17-.67 2.38-1.23 1.2-.57 2.5-1.23 3.9-2 1.39-.76 2.72-1.61 3.99-2.57 1.27-.95 2.15-1.93 2.66-2.95 1.01 0 2.12-.35 3.33-1.04 1.2-.7 2.12-1.43 2.76-2.19.38 0 1.14-.41 2.28-1.23 1.14-.82 2.34-1.77 3.61-2.85 1.27-1.07 2.5-2.15 3.71-3.23 1.2-1.07 2.18-1.87 2.94-2.38.89-.5 2.06-1.36 3.52-2.57 1.45-1.2 2.97-2.63 4.56-4.28 1.58-1.65 3.04-3.42 4.37-5.32 1.33-1.9 2.25-3.86 2.75-5.89-.25-.63-.63-1.07-1.14-1.33-.51-.25-.95-.57-1.33-.95-.26 0-.44.03-.57.1-.13.07-.26.09-.38.09-.26 0-.51-.03-.76-.09-.26-.06-.51-.1-.76-.1-1.4-.12-3.33-.06-5.8.19-2.47.26-4.78.7-6.94 1.33-1.78.51-3.55.95-5.32 1.33-1.78.38-3.9.86-6.37 1.43s-5.32 1.36-8.55 2.38c-3.23 1.02-7.13 2.35-11.69 3.99-3.68 1.02-6.65 1.93-8.93 2.76-2.28.83-4.44 1.71-6.46 2.66-2.03.95-3.23 1.81-3.61 2.57.25 1.78.7 3.07 1.33 3.9.63.82.95 1.87.95 3.13 0 1.14-.13 1.97-.38 2.47l.57 1.71c-.51 1.4-1.04 2.69-1.61 3.9-.58 1.19-1.12 2.36-1.63 3.5zm-17.1 112.31c.38 0 .69-.19.95-.57-.51 0-.82.19-.95.57zm10.07-115.54c-.26.26-.38.57-.38.95.25-.12.38-.44.38-.95zm1.14-1.33c-.38.13-.57.45-.57.95.13 0 .32-.31.57-.95zm1.14 9.69l.19-.38c0-.12-.13-.31-.38-.57-.63.89-.95 1.65-.95 2.28.51-.12.89-.57 1.14-1.33zm20.52-33.06c0 .38.06.57.19.57v-.19c.01-.13-.06-.25-.19-.38zm21.29 27.36c.25 0 .38-.06.38-.19 0-.25-.19-.5-.57-.76 0 .51.06.83.19.95zm25.27-.76l-.19.19.19-.19c-.51.26-.76.51-.76.76h.19c.25 0 .38-.06.38-.19 0-.12.06-.25.19-.38v-.19zm9.5-10.07c-.26.38-.51.73-.76 1.05-.26.32-.51.6-.76.86-.38.38-.89.83-1.52 1.33-.63.51-1.3 1.11-2 1.8-.7.7-1.36 1.4-2 2.09-.63.7-1.08 1.36-1.33 2 1.01-.5 2.09-1.27 3.23-2.28 1.14-1.01 2.15-1.96 3.04-2.85.63-.63 1.43-1.55 2.37-2.75.95-1.2 1.43-2.12 1.43-2.76l-.19-.19c-.75.75-1.25 1.32-1.51 1.7zm-1.33-8.36c-.13.13-.41.38-.86.76s-.95.86-1.52 1.43c-.57.57-1.08 1.17-1.52 1.81-.45.63-.67 1.14-.67 1.52 0 .13.03.19.09.19s.1.07.1.19c1.01-.5 1.9-1.27 2.66-2.28.76-1.01 1.39-2.15 1.9-3.42l-.18-.2z" fill="#282b30"/></svg>