<svg xmlns="http://www.w3.org/2000/svg" width="400" height="400"><path fill="currentColor" d="M371 371.486H28.023V28.507H371v342.979zM47.164 352.345h304.695V47.648H47.164v304.697z"/><path fill="currentColor" d="M231.184 272.441a9.956 9.956 0 0 1-2.25 1.715c-.787.429-1.896.643-3.322.643h-68.154c-2.003 0-3-.998-3-3.001V128.202c0-1.999.998-3 3-3h68.154c.998 0 1.929.144 2.786.429.857.288 1.785.931 2.786 1.929l12.002 12.002c1.143 1.286 1.822 2.324 2.036 3.108.215.787.321 1.607.321 2.465v42.436c0 2.144-.786 4.002-2.357 5.573l-8.358 8.573 8.358 8.358c1.571 1.574 2.357 3.001 2.357 4.286v40.508c0 2.143-.786 4.001-2.357 5.572l-12.002 12zm-17.788-91.302c.428-.429.643-.927.643-1.5v-17.146c0-.569-.215-1.071-.643-1.5l-3.644-3.644c-.429-.429-.857-.643-1.286-.643h-22.504v27.433h24.433l3.001-3zm0 59.154c.428-.569.643-1.071.643-1.5v-17.36c0-.569-.215-1.071-.643-1.5l-3.644-3.644c-.429-.429-.857-.644-1.286-.644h-22.504v27.647h24.433l3.001-2.999z"/></svg>