<?xml version="1.0" encoding="utf-8"?>
<!-- Generator: Adobe Illustrator 23.0.1, SVG Export Plug-In . SVG Version: 6.00 Build 0)  -->
<svg version="1.1" id="Layer_1" xmlns="http://www.w3.org/2000/svg" xmlns:xlink="http://www.w3.org/1999/xlink" x="0px" y="0px"
	 viewBox="0 0 288 288" style="enable-background:new 0 0 288 288;" xml:space="preserve">
<style type="text/css">
	.st0{fill:#282B30;}
	.st1{fill:#FFFFFF;}
</style>
<g>
	<path class="st0" d="M43.86,244.9c-1.14-1.65-1.78-3.58-1.9-5.8c-0.13-2.22-0.38-4.4-0.76-6.56c0.25-1.01,0.44-2.28,0.57-3.8
		c0.12-1.52,0.19-2.66,0.19-3.42c0-0.63-0.03-1.23-0.09-1.8c-0.07-0.57-0.1-1.17-0.1-1.81c0-3.3,0.85-6.24,2.57-8.83
		c1.71-2.6,3.52-5.1,5.42-7.51c0.38-0.63,1.43-2.16,3.14-4.56c1.71-2.41,4.78-4.88,9.22-7.41c2.15-1.4,4.34-3.04,6.56-4.94
		c2.21-1.9,4.59-3.17,7.13-3.8c2.91-1.14,5.16-2.06,6.75-2.76c1.58-0.7,2.78-1.36,3.61-2c0.82-0.63,1.43-1.23,1.81-1.8
		c0.38-0.57,0.95-1.36,1.71-2.38c1.14-2.66,2.18-4.87,3.14-6.65c0.95-1.77,2.09-3.67,3.42-5.7c1.33-2.03,2.76-3.8,4.28-5.32
		c1.01-1.01,1.96-2.37,2.85-4.08c0.88-1.71,1.83-3.26,2.85-4.66c0.25-0.63,0.31-1.33,0.19-2.09c-0.13-0.76,0.12-1.52,0.76-2.28
		c1.77-1.27,3.2-2.76,4.27-4.47c1.08-1.71,2.5-3.52,4.28-5.42c1.27-1.39,2.79-3.64,4.56-6.75c1.77-3.1,3.86-6.05,6.27-8.84
		c1.01-2.15,2.03-4.09,3.04-5.8c1.01-1.71,2.31-3.61,3.9-5.7c1.58-2.09,3.45-4.21,5.6-6.37c-0.26,0.26,0.03-0.13,0.86-1.14
		c0.82-1.01,1.9-2.34,3.23-3.99c1.33-1.64,2.69-3.48,4.09-5.51c1.39-2.03,2.53-3.93,3.42-5.7c0.12-0.25,0.47-0.67,1.04-1.23
		c0.57-0.57,1.17-1.23,1.81-2c0.63-0.76,1.23-1.52,1.8-2.28c0.57-0.76,0.86-1.45,0.86-2.09c-1.4,0.63-2.79,1.27-4.18,1.9
		c-1.27,0.63-2.57,1.27-3.9,1.9c-1.33,0.63-2.5,1.27-3.52,1.9c-4.44,1.78-8.36,3.93-11.78,6.46c-3.42,2.54-7.22,5.07-11.4,7.6
		l-0.76-0.38c0.25-0.25,0.41-0.44,0.47-0.57c0.06-0.12,0.22-0.31,0.47-0.57c-0.13,0-0.19-0.1-0.19-0.28c0-0.19-0.13-0.29-0.38-0.29
		c-0.51,0.38-0.89,0.89-1.14,1.52c0.25,0.13,0.5,0.19,0.76,0.19c0,0.25-0.32,0.7-0.95,1.33c-0.63,0.63-1.43,1.33-2.37,2.09
		c-0.95,0.76-1.93,1.52-2.95,2.28c-1.02,0.76-1.84,1.4-2.47,1.9c-0.51,0.38-1.36,0.98-2.57,1.81c-1.21,0.83-2.47,1.8-3.8,2.94
		c-1.33,1.14-2.5,2.38-3.52,3.71c-1.02,1.33-1.52,2.63-1.52,3.9c0,0.89,0.06,1.74,0.19,2.57c0.12,0.83,0.19,1.62,0.19,2.37
		c0,1.4-0.03,2.95-0.09,4.66c-0.07,1.71-0.41,3.14-1.05,4.28c-2.54,1.27-4.75,2.28-6.65,3.04c-1.9,0.76-3.8,1.55-5.7,2.37
		c-1.9,0.83-4.02,1.74-6.37,2.76c-2.35,1.02-5.16,2.41-8.46,4.18c-1.78,0.51-3.42,1.23-4.94,2.18c-1.52,0.95-3.04,1.97-4.56,3.04
		c-1.52,1.08-3.11,2.09-4.75,3.04c-1.65,0.95-3.36,1.74-5.13,2.38c-1.27-1.39-2.44-3.67-3.52-6.84c-1.08-3.17-1.62-6.08-1.62-8.74
		c0-1.01,0.06-1.83,0.19-2.47c0-0.89,0.5-2.76,1.52-5.61c1.01-2.85,3.42-6.18,7.22-9.98c0.63-1.27,1.65-2.66,3.04-4.18
		c1.39-1.52,2.91-3.04,4.56-4.56c1.64-1.52,3.35-3.07,5.13-4.66c1.77-1.58,3.36-3.07,4.75-4.47c3.29-3.29,6.46-6.14,9.5-8.55
		c3.04-2.4,6.21-4.62,9.5-6.65c0,0.13,0.25,0.19,0.76,0.19c0.12,0,0.41-0.31,0.86-0.95c0.44-0.63,1.07-1.36,1.9-2.18
		c0.82-0.82,1.77-1.65,2.85-2.47c1.07-0.82,2.31-1.49,3.7-2c0.76-0.25,1.65-0.69,2.66-1.33c1.01-0.63,2.09-1.33,3.23-2.09
		c1.14-0.76,2.31-1.52,3.52-2.28c1.2-0.76,2.31-1.33,3.33-1.71c0.76-0.76,2.38-1.87,4.85-3.33c2.47-1.45,5.1-2.95,7.89-4.47
		c2.79-1.52,5.42-2.85,7.89-3.99c2.47-1.14,4.09-1.71,4.85-1.71c2.91-1.14,6.46-2.6,10.64-4.37c4.18-1.77,8.74-3.55,13.68-5.32
		c0.12,0,0.82-0.16,2.09-0.47c1.27-0.32,2.72-0.7,4.37-1.14c1.65-0.44,3.2-0.92,4.66-1.43c1.46-0.5,2.44-1.01,2.95-1.52
		c1.39,0,3.01-0.19,4.85-0.57c1.83-0.38,3.7-0.82,5.6-1.33c1.9-0.5,3.73-1.04,5.51-1.62c1.77-0.57,3.42-1.11,4.94-1.62h0.57
		c3.17,0,6.75-0.44,10.74-1.33c3.99-0.88,7.82-1.33,11.5-1.33c2.78,0,5.03,0.48,6.75,1.43c1.71,0.95,3.45,1.55,5.23,1.8
		c3.04,2.54,5.63,5.99,7.79,10.36c2.15,4.37,3.23,8.77,3.23,13.21c0,1.27-0.07,2.38-0.19,3.33c-0.13,0.95-0.32,1.9-0.57,2.85
		c-0.25,0.95-0.67,2.03-1.23,3.23c-0.57,1.21-1.3,2.69-2.18,4.47c-1.27,2.16-2.54,3.96-3.8,5.42c-1.27,1.46-2.66,2.85-4.18,4.18
		c-1.52,1.33-3.1,2.69-4.75,4.09c-1.65,1.4-3.49,3.11-5.51,5.13c-2.16,1.01-4.31,2.31-6.46,3.9c-2.16,1.59-4.37,2.94-6.65,4.09
		c-2.41,1.14-5.16,2.79-8.27,4.94c-3.11,2.16-5.92,3.68-8.46,4.56c-5.32,2.79-9,4.78-11.02,5.99c-2.03,1.2-3.33,1.97-3.9,2.28
		c-0.57,0.32-0.73,0.45-0.48,0.38c0.25-0.06,0.03,0.07-0.67,0.38c-0.7,0.32-2.25,1.08-4.66,2.28c-2.41,1.2-6.46,3.2-12.16,5.99
		c0.76,0.89,2.22,1.61,4.37,2.19c2.15,0.57,3.86,1.17,5.13,1.8c1.52,0.89,2.85,2.31,3.99,4.27c1.14,1.97,2.09,4.12,2.85,6.46
		c0.76,2.35,1.33,4.66,1.71,6.93c0.38,2.28,0.57,4.25,0.57,5.89c0,3.3-0.1,5.99-0.29,8.08c-0.19,2.09-0.47,3.96-0.86,5.6
		c-0.38,1.65-0.89,3.23-1.52,4.75c-0.64,1.52-1.33,3.3-2.09,5.32c-0.13,0.63-0.6,1.71-1.43,3.23c-0.83,1.52-1.8,3.2-2.95,5.04
		c-1.14,1.83-2.35,3.58-3.61,5.23c-1.27,1.64-2.41,2.85-3.42,3.61c0.12-0.13-0.19,0.19-0.95,0.95c-0.76,0.76-1.59,1.62-2.47,2.57
		c-0.89,0.95-1.71,1.9-2.47,2.85c-0.76,0.95-1.14,1.55-1.14,1.8c-0.63,0.5-1.61,1.46-2.94,2.85c-1.33,1.39-2.98,2.95-4.94,4.66
		c-1.97,1.71-4.18,3.36-6.65,4.94c-2.47,1.58-5.04,2.82-7.7,3.7c-2.16,1.52-4.18,2.69-6.08,3.52c-1.9,0.82-3.42,1.68-4.56,2.57
		c-0.63-0.26-0.95-0.57-0.95-0.95c2.53-1.52,5.03-3.07,7.51-4.66c2.47-1.59,4.97-3.07,7.5-4.47c0.89-0.51,1.87-1.11,2.95-1.8
		c1.07-0.7,2.12-1.4,3.13-2.09c1.01-0.7,1.9-1.36,2.66-2c0.76-0.63,1.27-1.27,1.52-1.9c-0.26,0.12-0.45,0.19-0.57,0.19
		c-0.13,0-0.32,0.06-0.57,0.19c-5.32,4.18-10.87,7.76-16.63,10.74c-5.77,2.98-11.69,5.99-17.77,9.03c-0.13,0.12-0.57,0.38-1.33,0.76
		c-0.76,0.38-1.59,0.79-2.47,1.23c-0.89,0.44-1.71,0.88-2.47,1.33c-0.76,0.44-1.14,0.73-1.14,0.86l0.19,0.19l2.85-1.14
		c0.25-0.13,1.24-0.73,2.95-1.8c1.71-1.08,3.39-1.62,5.04-1.62h0.19h0.19c0.13,0.13,0.19,0.31,0.19,0.57c0,0.5-0.45,0.98-1.33,1.43
		c-0.89,0.44-1.65,0.79-2.28,1.05c-1.02,0.38-1.49,0.63-1.43,0.76c0.06,0.13-0.07,0.29-0.38,0.48c-0.32,0.19-1.17,0.54-2.57,1.04
		c-1.4,0.5-3.99,1.39-7.79,2.66c-1.9,0.63-4.18,1.64-6.84,3.04c-2.66,1.39-5.32,2.09-7.98,2.09h-0.57c0-0.64,0.09-1.05,0.28-1.24
		c0.19-0.19,0.28-0.41,0.28-0.67V243c-0.26,0-0.38,0.06-0.38,0.19c0,0.13-0.07,0.32-0.19,0.57c-0.26,0-0.51-0.07-0.76-0.19
		c0,0.63-0.16,1.11-0.48,1.43c-0.32,0.31-0.67,0.57-1.05,0.76c-0.38,0.19-0.76,0.35-1.14,0.47c-0.38,0.12-0.7,0.38-0.95,0.76
		c-0.64,0.12-1.59,0.41-2.85,0.85c-1.27,0.44-2.79,0.89-4.56,1.33c-1.78,0.44-3.8,0.86-6.08,1.24c-2.28,0.38-4.63,0.57-7.03,0.57
		c-0.26,0-0.51-0.03-0.76-0.1c-0.25-0.07-0.51-0.1-0.76-0.1c-0.76,0.25-1.4,0.38-1.9,0.38c-2.03,0-4.31-0.32-6.84-0.95
		C48.35,249.59,46.01,247.82,43.86,244.9z M50.89,226.85c-0.26,0.5-0.38,0.82-0.38,0.95c0.25,0.76,0.69,1.24,1.33,1.43
		c0.63,0.19,1.14,0.54,1.52,1.05c0.5-0.13,1.14-0.19,1.9-0.19c0.38,0.25,0.69,0.44,0.95,0.57c0.25,0.13,0.5,0.25,0.76,0.38
		c0.25-0.13,0.48-0.22,0.67-0.29c0.19-0.07,0.41-0.16,0.67-0.29c0.5,0,1.01,0.13,1.52,0.38c0.38-0.13,0.73-0.26,1.05-0.38
		c0.31-0.13,0.6-0.19,0.85-0.19c0.25,0,0.44,0.06,0.57,0.19c0.12,0.13,0.31,0.19,0.57,0.19c0.25,0,0.5-0.03,0.76-0.1
		c0.25-0.07,0.5-0.1,0.76-0.1c0.12,0,0.29,0.06,0.48,0.19c0.19,0.13,0.35,0.13,0.48,0c-0.26,0-0.07-0.1,0.57-0.28
		c0.63-0.19,1.39-0.45,2.28-0.76c0.88-0.32,1.71-0.64,2.47-0.95c0.76-0.32,1.2-0.54,1.33-0.67c0-0.26-0.03-0.54-0.1-0.86
		c-0.07-0.32-0.1-0.6-0.1-0.85c0-0.26,0.03-0.54,0.1-0.86c0.06-0.32,0.1-0.67,0.1-1.05c-0.51,0.25-0.89,0.38-1.14,0.38
		c-0.89-1.4-1.46-2.69-1.71-3.9c-0.26-1.21-0.38-3.01-0.38-5.42c0-0.89,0.16-1.74,0.48-2.57c0.31-0.83,0.47-1.62,0.47-2.38
		c0-0.13-0.03-0.26-0.09-0.38c-0.07-0.13-0.1-0.26-0.1-0.38c-0.26,0-0.83,0.35-1.71,1.05c-0.89,0.69-1.65,1.23-2.28,1.61
		c-3.04,2.15-5.8,4.4-8.27,6.75C54.78,221.5,52.66,224.06,50.89,226.85z M67.42,123.29c0.38-0.38,0.57-0.69,0.57-0.95
		c0-0.25-0.13-0.38-0.38-0.38c-0.38,0-1.17,0.6-2.38,1.81c-1.21,1.2-2.41,2.6-3.61,4.18c-1.21,1.59-2.28,3.14-3.23,4.66
		c-0.95,1.52-1.43,2.53-1.43,3.04c2.03-2.03,3.83-4.09,5.42-6.18C63.97,127.37,65.64,125.32,67.42,123.29z M64.95,135.07
		c0.25-0.13,0.47-0.22,0.67-0.29c0.19-0.06,0.41-0.22,0.67-0.47c-0.13-0.13-0.19-0.25-0.19-0.38c-0.51,0-0.83,0.19-0.95,0.57
		l-0.38,0.76L64.95,135.07z M73.69,129.94c0.12-0.12,0.19-0.28,0.19-0.47s0.06-0.35,0.19-0.47c-0.38,0.26-0.85,0.6-1.42,1.04
		c-0.57,0.45-0.86,0.79-0.86,1.05c0,0.13,0.03,0.22,0.1,0.28c0.06,0.07,0.1,0.22,0.1,0.48C72.36,131.33,72.93,130.7,73.69,129.94z
		 M80.72,224c-0.51,0.63-0.76,1.39-0.76,2.28c0.25,0,0.38,0.03,0.38,0.09c0,0.06,0.06,0.1,0.19,0.1c1.01-0.26,2.19-0.47,3.52-0.67
		c1.33-0.19,2.5-0.54,3.52-1.04c0.5-0.63,0.88-0.98,1.14-1.05c0.25-0.07,0.57-0.09,0.95-0.09s0.95-0.03,1.71-0.1
		c0.76-0.07,2-0.38,3.71-0.95c1.71-0.57,4.05-1.49,7.03-2.76c2.97-1.27,6.81-3.04,11.5-5.32c0.76-0.51,1.81-1.11,3.14-1.8
		c1.33-0.7,2.66-1.4,3.99-2.09c1.33-0.7,2.53-1.3,3.61-1.8c1.07-0.51,1.74-0.76,2-0.76c0.63-0.26,1.58-0.7,2.85-1.33
		c1.27-0.63,2.6-1.4,3.99-2.28c1.39-0.89,2.76-1.8,4.09-2.76c1.33-0.95,2.44-1.87,3.33-2.76c1.77-1.52,3.2-2.69,4.28-3.51
		c1.07-0.83,2.09-1.62,3.04-2.38c0.95-0.76,1.55-1.2,1.8-1.33c1.77-0.89,3.29-2.12,4.56-3.7c1.27-1.59,2.6-3.07,3.99-4.47
		c0.63-0.63,1.58-2,2.85-4.08c1.27-2.09,2.6-3.58,3.99-4.47c1.39-1.39,2.6-3.2,3.61-5.42c1.01-2.21,2.03-4.21,3.04-5.99
		c0-2.53-0.54-4.72-1.61-6.56c-1.08-1.83-2.44-3.39-4.09-4.66c-1.65-1.27-3.45-2.19-5.42-2.76c-1.97-0.57-3.83-0.86-5.61-0.86
		c-0.76,0-1.27,0.07-1.52,0.19c-0.64-0.12-1.17-0.22-1.62-0.28c-0.45-0.06-0.92-0.1-1.43-0.1c-1.02,0-2.16-0.03-3.42-0.1
		c-1.27-0.06-2.16,0.03-2.66,0.28c-0.51,0.13-1.46,0.19-2.85,0.19c-1.4,0-3.04,0.1-4.94,0.29c-1.9,0.19-3.87,0.51-5.89,0.95
		c-2.03,0.45-3.99,1.17-5.89,2.19c-0.63,0.63-1.23,1.46-1.8,2.47c-0.57,1.02-1.17,1.97-1.8,2.85c0.12-0.38-0.19-0.03-0.95,1.04
		c-0.76,1.08-1.65,2.38-2.66,3.9c-1.02,1.52-1.97,3.01-2.85,4.47c-0.89,1.46-1.33,2.37-1.33,2.76c0,0.38,0.13,0.57,0.38,0.57
		c0.12,0,0.44-0.13,0.95-0.38c2.91-0.76,5.83-1.46,8.74-2.09c2.91-0.63,5.95-1.27,9.12-1.9c0.88,0.38,1.61,1.08,2.19,2.09
		c0.57,1.02,0.85,2.03,0.85,3.04c0,0.63-0.07,1.14-0.19,1.52c0,0.51,0.19,0.95,0.57,1.33c-0.26,1.77-0.57,3.23-0.95,4.37
		c-0.38,1.14-0.83,2.22-1.33,3.23c-1.4,1.9-2.73,3.55-3.99,4.94c-1.02,1.27-2.06,2.37-3.13,3.33c-1.08,0.95-1.81,1.43-2.19,1.43
		c-0.26,0-0.45-0.07-0.57-0.19c0-0.26,0.12-0.47,0.38-0.67c0.25-0.19,0.38-0.47,0.38-0.86v-0.19c-1.78,1.14-4.09,1.87-6.94,2.18
		c-2.85,0.32-5.48,0.6-7.89,0.86c-0.76,0.38-1.68,0.67-2.76,0.86c-1.08,0.19-2.25,0.41-3.52,0.67c-1.27,0.25-2.44,0.54-3.52,0.86
		c-1.08,0.31-2,0.67-2.76,1.04c-1.14,1.39-2.16,2.69-3.04,3.9c-0.89,1.2-1.65,2.5-2.28,3.9c0.12-0.38-0.07,0.03-0.57,1.24
		c-0.51,1.2-1.27,2.82-2.28,4.84c-1.02,2.03-2.22,4.34-3.61,6.94C84.08,219.28,82.49,221.72,80.72,224z M83.95,201.77l0.19,0.19
		l0.19-0.19l-0.19-0.19L83.95,201.77z M89.08,205c-0.38,0-0.57,0.13-0.57,0.38l0.19,0.19c0.25,0,0.38-0.07,0.38-0.19V205z
		 M89.84,242.43c0.25-0.13,0.48-0.22,0.67-0.29c0.19-0.07,0.41-0.22,0.67-0.47c-1.52,0-2.35,0.5-2.47,1.52
		C88.95,242.94,89.34,242.69,89.84,242.43z M90.6,201.77c0,0.25,0.03,0.35,0.1,0.29c0.06-0.07,0.22,0.03,0.47,0.28
		c0.25-0.51,0.57-1.08,0.95-1.71c0.38-0.63,0.57-1.14,0.57-1.52c0-0.38,0.12-0.63,0.38-0.76c0.25-0.13,0.38-0.32,0.38-0.57v-0.38
		c-0.26,0.12-0.67,0.69-1.24,1.71C91.65,200.12,91.11,201.01,90.6,201.77z M92.12,241.29c1.52-0.26,2.95-0.63,4.28-1.14
		c1.33-0.51,2.69-1.14,4.09-1.9c-0.26,0-0.48-0.03-0.67-0.1c-0.19-0.07-0.41-0.1-0.67-0.1c0.25,0,0.03,0.1-0.67,0.29
		c-0.7,0.19-1.52,0.44-2.47,0.76c-0.95,0.32-1.84,0.67-2.66,1.05C92.53,240.53,92.12,240.91,92.12,241.29z M102,172.12
		c-0.38,0.13-0.7,0.45-0.95,0.95c0,0.38,0.06,0.63,0.19,0.76C101.75,173.33,102,172.76,102,172.12z M103.9,169.27
		c-0.51,0.38-0.76,0.63-0.76,0.76l0.19,0.38c-0.13,0,0.03-0.22,0.48-0.67c0.44-0.44,0.92-0.98,1.42-1.62
		c0.5-0.63,0.98-1.33,1.43-2.09c0.44-0.76,0.67-1.46,0.67-2.09c-0.38,0.26-0.98,0.98-1.8,2.18
		C104.69,167.34,104.16,168.39,103.9,169.27z M109.22,160.53c0,0.13,0.03,0.19,0.1,0.19c0.06,0,0.09,0.07,0.09,0.19
		c0.63-0.5,1.05-0.88,1.24-1.14c0.19-0.25,0.41-0.82,0.67-1.71c-0.64,0.13-1.05,0.45-1.24,0.95c-0.19,0.51-0.41,0.95-0.67,1.33
		L109.22,160.53z M113.03,165.47c-0.26,0.26-0.38,0.48-0.38,0.67c0,0.19-0.07,0.41-0.19,0.67c0.88-0.25,1.64-0.92,2.28-2
		c0.63-1.07,0.95-1.74,0.95-2v-0.38c-0.38,0-0.86,0.45-1.43,1.33C113.69,164.65,113.28,165.22,113.03,165.47z M114.55,225.14
		c0.5,0,1.01-0.26,1.52-0.76h-0.76c0.12,0-0.07,0.13-0.57,0.38c-0.51,0.25-0.83,0.44-0.95,0.57c0,0.13,0.06,0.19,0.19,0.19
		C114.1,225.52,114.29,225.39,114.55,225.14z M114.74,100.86c0.25-0.25,0.44-0.41,0.57-0.47c0.12-0.06,0.25-0.22,0.38-0.48
		C115.05,100.04,114.74,100.36,114.74,100.86z M116.45,216.97c-0.13,0-0.19,0.12-0.19,0.38l0.19-0.19V216.97z M118.54,222.86
		c0.12,0.12,0.38,0.19,0.76,0.19c0.38,0,0.88-0.32,1.52-0.95c0-0.13-0.07-0.26-0.19-0.38C119.61,221.97,118.92,222.35,118.54,222.86
		z M118.92,157.11c0,0.26-0.07,0.44-0.19,0.57l0.38-0.38L118.92,157.11z M147.23,205.38c0.63,0,1.07-0.32,1.33-0.95
		c-0.51,0-0.86,0.13-1.04,0.38c-0.19,0.25-0.48,0.57-0.86,0.95c-0.26,0-0.98,0.38-2.19,1.14c-1.2,0.76-2.53,1.64-3.99,2.66
		c-1.46,1.01-2.98,2.06-4.56,3.13c-1.59,1.07-2.88,2-3.9,2.76c-1.27,0.5-2.98,1.33-5.13,2.47c-2.16,1.14-3.74,2.22-4.75,3.23
		c1.52-0.13,3.39-0.76,5.61-1.9c2.21-1.14,4.53-2.47,6.94-3.99c2.4-1.52,4.72-3.17,6.93-4.94
		C143.84,208.54,145.71,206.9,147.23,205.38z M124.05,128.99c-0.51,0.38-0.79,0.6-0.86,0.67c-0.07,0.07-0.1,0.22-0.1,0.47
		C123.6,130.13,123.92,129.75,124.05,128.99z M125.19,126.71c-0.38,0.26-0.57,0.64-0.57,1.14c0.38-0.25,0.57-0.5,0.57-0.76V126.71z
		 M130.51,128.8c-0.26,0.26-0.45,0.51-0.57,0.76c-0.13,0.26-0.19,0.57-0.19,0.95v0.19c0.13,0,0.5-0.31,1.14-0.95
		c0.63-0.63,1.3-1.39,2-2.28c0.7-0.88,1.33-1.83,1.9-2.85c0.57-1.01,0.85-1.83,0.85-2.47c-0.13,0-0.76,0.7-1.9,2.09
		C132.6,125.63,131.52,127.15,130.51,128.8z M129.94,89.46c0.12,0.13,0.31,0.19,0.57,0.19v-0.19v-0.57
		C130.25,89.27,130.06,89.46,129.94,89.46z M136.97,120.25c-0.63,0.26-0.95,0.76-0.95,1.52c0.12,0,0.76-0.63,1.9-1.9
		c1.14-1.27,1.83-2.41,2.09-3.42c2.53-2.53,5.13-5.7,7.79-9.5c2.66-3.8,4.94-7.35,6.84-10.64c0.5-0.76,1.39-1.93,2.66-3.52
		c1.27-1.58,1.9-2.82,1.9-3.71c-0.38,0.13-0.79,0.51-1.23,1.14c-0.45,0.63-0.79,1.14-1.04,1.52c-2.92,3.67-5.73,7.54-8.46,11.59
		c-2.73,4.06-5.54,8.17-8.46,12.35c0,0.38-0.45,1.01-1.33,1.9C137.79,118.47,137.22,119.36,136.97,120.25z M145.9,119.49
		c0.25-0.63,0.79-1.45,1.62-2.47c0.82-1.01,1.55-2.03,2.18-3.04c0.38-0.63,0.95-1.43,1.71-2.37c0.76-0.95,1.55-1.96,2.37-3.04
		c0.82-1.07,1.62-2.18,2.38-3.33c0.76-1.14,1.27-2.21,1.52-3.23c-1.4,0.76-2.69,2.35-3.9,4.75c-1.2,2.41-2.69,4.5-4.47,6.27
		c-1.4,1.65-2.47,3.01-3.23,4.09c-0.76,1.08-1.46,2.12-2.09,3.13c-0.64,1.02-0.95,1.78-0.95,2.28l0.19,0.38
		c0.12,0,0.5-0.41,1.14-1.23C145.01,120.85,145.52,120.12,145.9,119.49z M166.61,91.17c-1.02,1.78-2.12,3.8-3.33,6.08
		c-1.2,2.28-2.63,4.5-4.28,6.65c-2.16,2.79-4.25,5.61-6.27,8.46c-2.03,2.85-3.99,5.54-5.89,8.08c0.12,0,0.19,0.03,0.19,0.1
		c0,0.07,0.06,0.09,0.19,0.09c3.29-1.01,6.43-2.66,9.41-4.94c2.97-2.28,6.3-4.37,9.98-6.27c0.25-0.12,0.92-0.54,2-1.23
		c1.07-0.7,2.25-1.43,3.52-2.19c1.27-0.76,2.47-1.45,3.61-2.09c1.14-0.63,1.9-0.95,2.28-0.95c1.01-0.25,2.4-1.2,4.18-2.85
		c1.77-1.64,4.11-3.04,7.03-4.18c0.38-0.25,1.17-0.67,2.38-1.23c1.2-0.57,2.5-1.23,3.9-2c1.39-0.76,2.72-1.61,3.99-2.57
		c1.27-0.95,2.15-1.93,2.66-2.95c1.01,0,2.12-0.35,3.33-1.04c1.2-0.7,2.12-1.43,2.76-2.19c0.38,0,1.14-0.41,2.28-1.23
		c1.14-0.82,2.34-1.77,3.61-2.85c1.27-1.07,2.5-2.15,3.71-3.23c1.2-1.07,2.18-1.87,2.94-2.38c0.89-0.5,2.06-1.36,3.52-2.57
		c1.45-1.2,2.97-2.63,4.56-4.28c1.58-1.65,3.04-3.42,4.37-5.32c1.33-1.9,2.25-3.86,2.75-5.89c-0.25-0.63-0.63-1.07-1.14-1.33
		c-0.51-0.25-0.95-0.57-1.33-0.95c-0.26,0-0.44,0.03-0.57,0.1c-0.13,0.07-0.26,0.09-0.38,0.09c-0.26,0-0.51-0.03-0.76-0.09
		c-0.26-0.06-0.51-0.1-0.76-0.1c-1.4-0.12-3.33-0.06-5.8,0.19c-2.47,0.26-4.78,0.7-6.94,1.33c-1.78,0.51-3.55,0.95-5.32,1.33
		c-1.78,0.38-3.9,0.86-6.37,1.43c-2.47,0.57-5.32,1.36-8.55,2.38c-3.23,1.02-7.13,2.35-11.69,3.99c-3.68,1.02-6.65,1.93-8.93,2.76
		c-2.28,0.83-4.44,1.71-6.46,2.66c-2.03,0.95-3.23,1.81-3.61,2.57c0.25,1.78,0.7,3.07,1.33,3.9c0.63,0.82,0.95,1.87,0.95,3.13
		c0,1.14-0.13,1.97-0.38,2.47l0.57,1.71c-0.51,1.4-1.04,2.69-1.61,3.9C167.66,88.86,167.12,90.03,166.61,91.17z M149.51,203.48
		c0.38,0,0.69-0.19,0.95-0.57C149.95,202.91,149.64,203.1,149.51,203.48z M159.58,87.94c-0.26,0.26-0.38,0.57-0.38,0.95
		C159.45,88.77,159.58,88.45,159.58,87.94z M160.72,86.61c-0.38,0.13-0.57,0.45-0.57,0.95C160.28,87.56,160.47,87.25,160.72,86.61z
		 M161.86,96.3l0.19-0.38c0-0.12-0.13-0.31-0.38-0.57c-0.63,0.89-0.95,1.65-0.95,2.28C161.23,97.51,161.61,97.06,161.86,96.3z
		 M182.38,63.24c0,0.38,0.06,0.57,0.19,0.57v-0.19C182.58,63.49,182.51,63.37,182.38,63.24z M203.67,90.6
		c0.25,0,0.38-0.06,0.38-0.19c0-0.25-0.19-0.5-0.57-0.76C203.48,90.16,203.54,90.48,203.67,90.6z M228.94,89.84l-0.19,0.19
		L228.94,89.84c-0.51,0.26-0.76,0.51-0.76,0.76h0.19c0.25,0,0.38-0.06,0.38-0.19c0-0.12,0.06-0.25,0.19-0.38V89.84z M238.44,79.77
		c-0.26,0.38-0.51,0.73-0.76,1.05c-0.26,0.32-0.51,0.6-0.76,0.86c-0.38,0.38-0.89,0.83-1.52,1.33c-0.63,0.51-1.3,1.11-2,1.8
		c-0.7,0.7-1.36,1.4-2,2.09c-0.63,0.7-1.08,1.36-1.33,2c1.01-0.5,2.09-1.27,3.23-2.28c1.14-1.01,2.15-1.96,3.04-2.85
		c0.63-0.63,1.43-1.55,2.37-2.75c0.95-1.2,1.43-2.12,1.43-2.76l-0.19-0.19C239.2,78.82,238.7,79.39,238.44,79.77z M237.11,71.41
		c-0.13,0.13-0.41,0.38-0.86,0.76c-0.45,0.38-0.95,0.86-1.52,1.43c-0.57,0.57-1.08,1.17-1.52,1.81c-0.45,0.63-0.67,1.14-0.67,1.52
		c0,0.13,0.03,0.19,0.09,0.19c0.06,0,0.1,0.07,0.1,0.19c1.01-0.5,1.9-1.27,2.66-2.28c0.76-1.01,1.39-2.15,1.9-3.42L237.11,71.41z"/>
</g>
</svg>
